<?xml version="1.0" encoding="utf-8"?>
<svg width="187px" height="54.257812px" viewBox="0 0 187 54.257812" version="1.1" xmlns:xlink="http://www.w3.org/1999/xlink" xmlns="http://www.w3.org/2000/svg">
  <g id="Group">
    <g id="Black-Swan">
      <g transform="translate(0, 10.037109)" id="B-lack--S-wan" fill="#F11414">
        <path d="M0.404297 32.8359L4.81641 32.1855Q5.11523 30.7441 5.29102 27.2373Q5.4668 23.7305 5.4668 21.7793L5.4668 16.1191Q5.4668 13.7285 5.34375 11.54Q5.2207 9.35156 5.00977 8.06836L0.439453 7.45313L0.439453 7.27734L13.5 7.27734Q16.3125 7.27734 17.9648 8.18262Q19.6172 9.08789 20.2852 10.4414Q20.9531 11.7949 20.9531 13.2891Q20.9531 15.9609 19.1689 17.5166Q17.3848 19.0723 14.8359 19.3008L14.8359 19.3711Q17.4727 19.4941 19.3271 20.4609Q21.1816 21.4277 22.1309 22.9482Q23.0801 24.4688 23.0801 26.209Q23.0801 27.6855 22.3506 29.2324Q21.6211 30.7793 19.6963 31.8955Q17.7715 33.0117 14.5371 33.0117L0.404297 33.0117L0.404297 32.8359ZM11.5137 8.24414Q10.1602 8.24414 9.47461 8.45508Q9.03516 11.2676 9.03516 15.1172Q9.03516 17.9297 9.14063 18.7207Q9.91406 19.0371 11.2324 19.0371Q12.9902 19.0371 14.3613 18.3955Q15.7324 17.7539 16.5234 16.4971Q17.3145 15.2402 17.3145 13.3945Q17.3145 11.9707 16.7168 10.8018Q16.1191 9.63281 14.8184 8.93848Q13.5176 8.24414 11.5137 8.24414ZM11.5488 19.9863Q9.82617 19.9863 9.14063 20.2324Q9 21.5156 9 24.416Q9 27.8613 9.24609 31.0254Q10.248 31.5879 11.0479 31.7988Q11.8477 32.0098 13.0254 32.0098Q14.8887 32.0098 16.2773 31.3682Q17.666 30.7266 18.4482 29.4434Q19.2305 28.1602 19.2305 26.3145Q19.2305 24.4688 18.3428 23.0449Q17.4551 21.6211 15.7236 20.8037Q13.9922 19.9863 11.5488 19.9863ZM5.97656 7.92773L5.97656 32.3262L7.20703 32.3262L7.20703 7.92773L5.97656 7.92773ZM11.9883 7.69922L11.9883 7.83984Q13.9043 7.89258 15.249 8.62207Q16.5938 9.35156 17.2617 10.6084Q17.9297 11.8652 17.9297 13.5Q17.9297 15.0469 17.3408 16.2158Q16.752 17.3848 15.8379 18.0527Q14.9238 18.7207 13.9395 18.9668L13.9395 19.1602Q16.3828 18.8262 17.7451 17.2178Q19.1074 15.6094 19.1074 13.3945Q19.1074 12.0234 18.6592 10.9512Q18.2109 9.87891 17.376 9.13184Q16.541 8.38477 15.4688 8.00684Q14.3965 7.62891 13.0254 7.62891Q12.6914 7.62891 11.9883 7.69922ZM13.9395 19.6523L13.9395 19.793Q15.4863 20.0742 16.8398 20.8916Q18.1934 21.709 19.0107 23.0889Q19.8281 24.4688 19.8281 26.3848Q19.8281 27.9492 19.1514 29.3115Q18.4746 30.6738 16.9541 31.5527Q15.4336 32.4316 13.1484 32.4316L13.1484 32.5723Q13.4297 32.6602 14.1855 32.6602Q16.4004 32.6602 17.9824 31.7725Q19.5645 30.8848 20.3467 29.4434Q21.1289 28.002 21.1289 26.3848Q21.1289 24.4512 20.3027 22.957Q19.4766 21.4629 17.8506 20.5928Q16.2246 19.7227 13.9395 19.6523Z" />
      </g>
      <g transform="translate(24.011719, 10.96875)" id="B-lack--S-wan" fill="#F11414">
        <path d="M2.00391 32.0801Q2.35464 26.666 2.68753 19.248Q2.9155 13.8516 3.02069 8.08594L4.65683 8.10352Q5.16714 8.10352 6.22266 8.08594L5.67938 18.4043L5.29376 28.8457L5.22372 32.0801Q4.18552 32.0449 3.67548 32.0449Q3.46426 32.0449 2.00391 32.0801ZM11.1797 17.1035Q11.3379 16.3301 11.5137 14.8184Q13.623 14.2734 15.1787 14.0713Q16.7344 13.8691 18.2109 13.8691Q19.793 13.8691 21.1729 14.1592Q22.5527 14.4492 23.4668 15.0996Q24.3809 15.75 24.6797 16.5938Q24.9785 17.4375 24.9785 18.4043Q24.9785 19.6172 24.7952 22.4736Q24.6118 25.3301 24.5157 27.7559Q24.4196 30.1816 24.4196 32.0801Q23.4693 32.0449 22.8711 32.0449Q22.3077 32.0449 21.2695 32.0801L21.6431 27.2813L21.91 21.6035Q21.2943 22.0781 20.9865 22.2715Q20.6787 22.4648 20.2916 22.6318Q19.9045 22.7988 19.4384 22.9482Q18.9723 23.0977 17.6266 23.4668Q16.2809 23.8359 15.7179 24.0293Q14.5042 24.416 13.8005 24.8027Q13.0968 25.1895 12.6218 25.6465Q12.1468 26.1035 11.9534 26.5605Q11.7246 27.123 11.7246 27.7383Q11.7246 28.6875 12.2871 29.3906Q12.8496 30.0938 13.7021 30.3662Q14.5547 30.6387 15.75 30.6387Q16.4883 30.6387 17.2969 30.5361Q18.1055 30.4335 19.459 30.0059Q19.2129 30.6856 18.8965 32.0977Q17.6133 32.3438 16.8047 32.4053Q15.9961 32.4668 15.2754 32.4668Q12.8672 32.4668 11.5137 31.9043Q10.1602 31.3418 9.49219 30.1904Q8.82422 29.0391 8.82422 27.6855Q8.82422 26.8945 9.06152 26.2266Q9.29883 25.5586 9.70326 25.0137Q10.1077 24.4688 10.8548 23.9238Q11.6018 23.3789 12.4194 23.0273Q13.2369 22.6758 14.327 22.333Q15.4171 21.9902 17.8256 21.4102Q18.599 21.2344 19.1441 21.0498Q19.6891 20.8652 20.111 20.6895Q20.5329 20.5137 20.8494 20.2764Q21.166 20.0391 21.4297 19.6963Q21.6933 19.3535 21.8164 19.002Q21.9394 18.6504 21.9394 18.2988Q21.9394 17.4375 21.3768 16.8223Q20.8141 16.207 19.9087 15.9609Q19.0033 15.7148 17.7726 15.7148Q16.63 15.7148 15.4256 15.8994Q14.2213 16.084 13.351 16.3389Q12.4807 16.5938 11.1797 17.1035ZM42.2754 29.4082Q42.2402 29.6895 42.0908 30.4541Q41.9414 31.2188 41.8359 31.957Q40.5527 32.2559 39.3662 32.3613Q38.1797 32.4668 37.2832 32.4668Q35.3848 32.4668 33.7764 31.957Q32.168 31.4473 30.9727 30.2783Q29.7773 29.1094 29.2148 27.3779Q28.6523 25.6465 28.6523 23.7305Q28.6523 21.1465 29.5664 18.8262Q30.4805 16.5059 32.4492 15.1875Q34.418 13.8691 37.8105 13.8691Q40.3066 13.8691 42.6797 14.5371Q42.7852 16.0313 42.873 16.998Q41.2031 16.4707 40.1484 16.2861Q39.0938 16.1016 38.1973 16.1016Q36.6504 16.1016 35.4287 16.6641Q34.207 17.2266 33.3457 18.2637Q32.4844 19.3008 32.1064 20.7246Q31.7285 22.1484 31.7285 23.625Q31.7285 25.6113 32.3438 27.1055Q32.959 28.5996 34.4971 29.417Q36.0352 30.2344 37.9512 30.2344Q39.8145 30.2344 42.2754 29.4082ZM46.2129 32.0801L46.5109 27.3164L46.8792 18.1934L47.072 10.5469Q47.0896 8.87696 47.0896 8.08594L48.7255 8.10352Q49.2003 8.10352 50.2559 8.08594Q50.0279 10.916 49.7035 19.0811Q49.3792 27.2461 49.3264 32.0801Q48.2357 32.0449 47.796 32.0449Q47.3036 32.0449 46.2129 32.0801ZM49.834 22.1396L53.421 18.312Q55.3022 16.3103 56.9726 14.2734Q58.185 14.291 58.7296 14.291Q59.4146 14.291 60.6094 14.2734L53.0057 22.1572Q55.1352 24.937 61.2422 32.0801Q60.1543 32.0449 59.4874 32.0449Q58.8208 32.0449 57.6801 32.0801L55.094 28.6493Q54.7245 28.1742 53.4581 26.6435L50.7313 23.3185L49.834 22.1396Z" />
      </g>
      <g transform="translate(85.46484, 10.037109)" id="B-lack--S-wan" fill="#F11414">
        <path d="M22.9922 7.3125L22.4297 7.3125Q20.4961 7.3125 18.8613 8.08594Q17.2266 8.85938 16.2773 10.2832Q15.3281 11.707 15.3281 13.5Q15.3281 15.7324 17.2793 17.6836Q18.1406 18.5098 18.8877 19.0723Q19.6348 19.6348 21.1465 20.6631Q22.6582 21.6914 23.5635 22.3506Q24.4688 23.0098 25.0488 23.6074Q26.6309 25.1895 26.6309 27.1406Q26.6309 28.4766 25.9014 29.7158Q25.1719 30.9551 23.792 31.7373Q22.4121 32.5195 20.5488 32.5371L20.5488 32.7305Q22.6934 32.8008 24.3721 31.9746Q26.0508 31.1484 26.9385 29.7949Q27.8262 28.4414 27.8262 27Q27.8262 25.752 27.4219 24.7324Q27.0176 23.7129 25.9453 22.6406Q25.3301 22.0254 23.7305 20.9268Q22.1309 19.8281 20.4961 18.7119Q18.8613 17.5957 18.1055 16.875Q16.2598 15.0469 16.2598 12.8496Q16.2598 10.916 17.9385 9.24609Q19.6172 7.57617 22.9922 7.48828L22.9922 7.3125ZM14.3965 26.8594L15.7324 31.1836Q16.7344 31.6406 18.0791 31.9219Q19.4238 32.2031 20.4082 32.1855Q21.7266 32.1855 22.8252 31.7285Q23.9238 31.2715 24.6182 30.5684Q25.3125 29.8652 25.6816 28.9775Q26.0508 28.0898 26.0508 27.2461Q26.0508 25.5059 24.873 24.3105Q23.6953 23.1152 20.9268 21.252Q18.1582 19.3887 16.9102 18.1406Q15.8379 17.0332 15.3105 15.917Q14.7832 14.8008 14.7832 13.4297Q14.7832 11.918 15.6094 10.4238Q16.4355 8.92969 18.1582 7.93652Q19.8809 6.94336 22.3945 6.94336Q23.5371 6.94336 24.8203 7.05762Q26.1035 7.17188 26.5957 7.17188Q27.0176 7.1543 27.3867 7.14551Q27.7559 7.13672 27.9756 7.11035Q28.1953 7.08398 28.4414 7.04883L28.5469 13.0605L28.3184 13.0605L27.2109 9Q24.7676 7.92773 22.957 7.92773Q21.4453 7.92773 20.2412 8.49902Q19.0371 9.07031 18.3691 10.0635Q17.7012 11.0566 17.7012 12.3047Q17.7012 13.6055 18.5977 14.6865Q19.4941 15.7676 21.0498 16.8047Q22.6055 17.8418 24.3896 19.002Q26.1738 20.1621 27.2461 21.2344Q29.3379 23.3262 29.3379 26.0684Q29.3379 27.6152 28.5293 29.2588Q27.7207 30.9023 25.8047 32.0449Q23.8887 33.1875 20.8477 33.1875Q19.7754 33.1875 18.2373 33.0645Q16.6992 32.9414 15.9785 32.9414Q15.6445 32.9414 15.46 32.959Q15.2754 32.9766 14.8887 33.0117Q14.502 33.0469 14.4316 33.0469L14.1504 26.8594L14.3965 26.8594Z" />
      </g>
      <g transform="translate(115.66406, 10.96875)" id="B-lack--S-wan" fill="#F11414">
        <path d="M6.60663 32.0801L5.77853 29.5313L0.316406 14.2734Q1.28156 14.291 1.87839 14.291Q2.43979 14.291 3.31732 14.2734L4.86832 19.002L8.44629 29.3555L14.0021 14.2734Q14.9507 14.291 15.6184 14.291Q16.3389 14.291 17.1996 14.2734L21.2607 29.3555L26.17 17.6836L27.5375 14.2734Q28.4892 14.291 29.0001 14.291L30.5156 14.2734L24.5915 27.5273L22.6579 32.0801Q21.7834 32.0449 21.0487 32.0449Q20.2964 32.0449 19.2818 32.0801L16.0414 19.7402Q15.7242 18.5273 15.3721 17.332L15.0202 18.2461Q14.862 18.6328 14.2993 20.1973L10.5886 30.3223Q10.325 31.043 9.97311 32.0801Q9.07883 32.0449 8.36005 32.0449Q7.58853 32.0449 6.60663 32.0801ZM33.1699 17.1035Q33.3281 16.3301 33.5039 14.8184Q35.6133 14.2734 37.1689 14.0713Q38.7246 13.8691 40.2012 13.8691Q41.7832 13.8691 43.1631 14.1592Q44.543 14.4492 45.457 15.0996Q46.3711 15.75 46.6699 16.5938Q46.9688 17.4375 46.9688 18.4043Q46.9688 19.6172 46.7854 22.4736Q46.6021 25.3301 46.506 27.7559Q46.4098 30.1816 46.4098 32.0801Q45.4595 32.0449 44.8613 32.0449Q44.298 32.0449 43.2598 32.0801L43.6333 27.2813L43.9003 21.6035Q43.2845 22.0781 42.9767 22.2715Q42.669 22.4648 42.2818 22.6318Q41.8947 22.7988 41.4286 22.9482Q40.9625 23.0977 39.6168 23.4668Q38.2711 23.8359 37.7081 24.0293Q36.4944 24.416 35.7907 24.8027Q35.087 25.1895 34.612 25.6465Q34.137 26.1035 33.9436 26.5605Q33.7148 27.123 33.7148 27.7383Q33.7148 28.6875 34.2773 29.3906Q34.8398 30.0938 35.6924 30.3662Q36.5449 30.6387 37.7402 30.6387Q38.4785 30.6387 39.2871 30.5361Q40.0957 30.4335 41.4492 30.0059Q41.2031 30.6856 40.8867 32.0977Q39.6035 32.3438 38.7949 32.4053Q37.9863 32.4668 37.2656 32.4668Q34.8574 32.4668 33.5039 31.9043Q32.1504 31.3418 31.4824 30.1904Q30.8145 29.0391 30.8145 27.6855Q30.8145 26.8945 31.0518 26.2266Q31.2891 25.5586 31.6935 25.0137Q32.0979 24.4688 32.845 23.9238Q33.5921 23.3789 34.4096 23.0273Q35.2271 22.6758 36.3172 22.333Q37.4073 21.9902 39.8158 21.4102Q40.5893 21.2344 41.1343 21.0498Q41.6794 20.8652 42.1013 20.6895Q42.5231 20.5137 42.8397 20.2764Q43.1562 20.0391 43.4199 19.6963Q43.6836 19.3535 43.8066 19.002Q43.9297 18.6504 43.9297 18.2988Q43.9297 17.4375 43.367 16.8223Q42.8044 16.207 41.899 15.9609Q40.9936 15.7148 39.7628 15.7148Q38.6202 15.7148 37.4159 15.8994Q36.2115 16.084 35.3412 16.3389Q34.471 16.5938 33.1699 17.1035ZM51.0645 32.0801Q51.9049 21.0586 51.9401 14.2734L53.5237 14.291Q54.1044 14.291 55.0547 14.2734L54.8223 17.7891Q55.2618 17.0508 55.5256 16.6553Q55.7894 16.2598 56.229 15.8203Q56.6686 15.3809 57.2664 15.0029Q57.8642 14.625 58.673 14.3701Q59.4819 14.1152 60.317 13.9922Q61.1521 13.8691 61.9785 13.8691Q63.4908 13.8691 64.8975 14.2383Q66.3041 14.6074 67.2095 15.4424Q68.115 16.2773 68.4227 17.3145Q68.7305 18.3516 68.7305 19.5469Q68.7305 19.7754 68.713 20.4258Q68.6956 21.0762 68.6434 22.1309L68.2949 29.4961Q68.26 30.5508 68.2427 32.0801Q67.4506 32.0449 66.7463 32.0449Q65.8839 32.0449 65.127 32.0801Q65.3044 29.9531 65.3931 27.9844L65.6235 23.8887Q65.7301 21.7793 65.7301 20.707Q65.7301 19.1602 65.2022 18.2373Q64.6743 17.3145 63.5128 16.8135Q62.3513 16.3125 60.9082 16.3125Q58.8667 16.3125 57.406 17.2793Q56.0685 18.1758 55.3293 19.8281Q54.819 21.0059 54.6078 23.3086Q54.3398 26.0684 54.2324 32.0801Q53.2521 32.0449 52.7097 32.0449Q52.1672 32.0449 51.0645 32.0801Z" />
      </g>
    </g>
    <g id="Engineering" transform="translate(93 36)">
      <g transform="translate(3.4648438, 4)" id="Engineering">
        <path d="M1.04688 14.2578L1.24341 11.3203L1.4635 5.82813L1.48718 4.63281Q1.49499 4.17969 1.495 3.59375Q3.25989 3.60156 5.11072 3.60156L7.60193 3.59375L8.39844 3.59375Q8.34375 4.13672 8.32813 4.6875L7.63281 4.64844Q7.375 4.63281 6.74609 4.625Q6.11719 4.61719 5.5 4.61719Q3.65625 4.61719 2.92969 4.64063L2.78796 8.29688Q3.99133 8.32031 4.9447 8.32031Q5.98401 8.32031 7.67188 8.28906Q7.61719 8.83594 7.60156 9.36719L4.91309 9.34375Q4.12378 9.34375 2.71704 9.375L2.57532 13.2344L3.38818 13.2422Q5.60034 13.2422 6.32336 13.2266Q7.04639 13.2109 8.01563 13.1563Q7.96094 13.7344 7.94531 14.2578Q6.0625 14.2422 4.76563 14.2422L1.04688 14.2578ZM9.88281 14.2578Q10.2563 9.35938 10.272 6.34375L10.9758 6.35156Q11.2339 6.35156 11.6563 6.34375L11.553 7.90625Q11.7483 7.57813 11.8655 7.40234Q11.9828 7.22656 12.1782 7.03125Q12.3735 6.83594 12.6392 6.66797Q12.9049 6.5 13.2644 6.38672Q13.6239 6.27344 13.9951 6.21875Q14.3662 6.16406 14.7335 6.16406Q15.4056 6.16406 16.0308 6.32813Q16.656 6.49219 17.0584 6.86328Q17.4608 7.23438 17.5976 7.69531Q17.7344 8.15625 17.7344 8.6875Q17.7344 8.78906 17.7266 9.07813Q17.7189 9.36719 17.6957 9.83594L17.5408 13.1094Q17.5253 13.5781 17.5176 14.2578Q17.1655 14.2422 16.8525 14.2422Q16.4692 14.2422 16.1328 14.2578Q16.2117 13.3125 16.2511 12.4375L16.3535 10.6172Q16.4009 9.67969 16.4009 9.20313Q16.4009 8.51563 16.1663 8.10547Q15.9316 7.69531 15.4154 7.47266Q14.8992 7.25 14.2578 7.25Q13.3505 7.25 12.7013 7.67969Q12.1068 8.07813 11.7783 8.8125Q11.5515 9.33594 11.4576 10.3594Q11.3385 11.5859 11.2908 14.2578Q10.8551 14.2422 10.614 14.2422Q10.3729 14.2422 9.88281 14.2578ZM20.0703 16.5469Q21.1016 16.8594 21.7969 16.9688Q22.4922 17.0781 23.0625 17.0781Q23.7109 17.0781 24.2656 16.8984Q24.7266 16.75 25.0547 16.4766Q25.3047 16.2656 25.4688 15.9297Q25.6719 15.4844 25.7578 14.7969Q25.8275 14.2422 25.8662 12.5859Q25.6787 12.9375 25.5264 13.1563Q25.3741 13.375 25.1163 13.6055Q24.8585 13.8359 24.5148 14.0156Q24.1711 14.1953 23.7181 14.3008Q23.265 14.4063 22.7808 14.4063Q22.0699 14.4063 21.4489 14.2109Q20.8279 14.0156 20.3397 13.5625Q19.8514 13.1094 19.5976 12.4063Q19.3438 11.7031 19.3438 10.9375Q19.3438 9.88281 19.7227 8.92969Q20.1016 7.97656 20.832 7.33594Q21.5625 6.69531 22.4805 6.42969Q23.3984 6.16406 24.4922 6.16406Q25.6953 6.16406 27.4844 6.48438L27.3982 7.44531L27.163 11.8281Q27.163 11.9609 27.1238 13.4219L27.0768 15.0391Q27.0377 15.5547 26.9362 15.9453Q26.8424 16.2656 26.6863 16.5547Q26.5457 16.8203 26.3347 17.0391Q26.1316 17.2656 25.8583 17.4453Q25.5848 17.625 25.2725 17.7344Q24.8351 17.8906 24.3663 17.9609Q23.8352 18.0469 23.3041 18.0469Q22.5386 18.0469 21.8005 17.9688Q21.0624 17.8906 20.1484 17.6719L20.125 17.2422Q20.1172 17.0859 20.0703 16.5469ZM26.0754 7.32813Q25.2009 7.15625 24.4435 7.15625Q23.6782 7.15625 23.0262 7.33594Q22.3741 7.51563 21.8315 7.99219Q21.2888 8.46875 20.9843 9.22656Q20.6797 9.98438 20.6797 10.7969Q20.6797 11.5547 20.9569 12.1797Q21.2341 12.8047 21.812 13.1211Q22.3898 13.4375 23.1238 13.4375Q23.7562 13.4375 24.2521 13.2148Q24.7479 12.9922 25.1306 12.5313Q25.5288 12.0547 25.724 11.4375Q25.8724 11 25.9506 10.1406Q26.0129 9.45313 26.0754 7.32813ZM29.625 4.64063Q29.6484 3.90625 29.6484 3.53125Q30.0781 3.54688 30.4063 3.54688Q30.8203 3.54688 31.1563 3.53125Q31.1406 3.77344 31.1094 4.64063Q30.6875 4.63281 30.3828 4.63281Q30.0781 4.63281 29.625 4.64063ZM29.2656 14.2578L29.401 12.2891L29.5524 8.92969L29.6161 6.34375L30.3354 6.35156L31.0391 6.34375Q30.9514 7.5625 30.8796 8.89453Q30.8079 10.2266 30.764 11.8047Q30.7202 13.3828 30.7202 14.2578Q30.2275 14.2422 30.0164 14.2422Q29.8209 14.2422 29.2656 14.2578ZM32.7813 14.2578Q33.1548 9.35938 33.1704 6.34375L33.8743 6.35156Q34.1323 6.35156 34.5547 6.34375L34.4514 7.90625Q34.6467 7.57813 34.764 7.40234Q34.8812 7.22656 35.0766 7.03125Q35.272 6.83594 35.5377 6.66797Q35.8033 6.5 36.1628 6.38672Q36.5223 6.27344 36.8935 6.21875Q37.2646 6.16406 37.632 6.16406Q38.3041 6.16406 38.9293 6.32813Q39.5544 6.49219 39.9568 6.86328Q40.3593 7.23438 40.496 7.69531Q40.6328 8.15625 40.6328 8.6875Q40.6328 8.78906 40.6251 9.07813Q40.6173 9.36719 40.5941 9.83594L40.4392 13.1094Q40.4237 13.5781 40.416 14.2578Q40.064 14.2422 39.751 14.2422Q39.3677 14.2422 39.0313 14.2578Q39.1101 13.3125 39.1495 12.4375L39.252 10.6172Q39.2993 9.67969 39.2993 9.20313Q39.2993 8.51563 39.0647 8.10547Q38.8301 7.69531 38.3138 7.47266Q37.7976 7.25 37.1563 7.25Q36.2489 7.25 35.5997 7.67969Q35.0052 8.07813 34.6768 8.8125Q34.45 9.33594 34.3561 10.3594Q34.2369 11.5859 34.1892 14.2578Q33.7535 14.2422 33.5125 14.2422Q33.2714 14.2422 32.7813 14.2578ZM48.9531 13.0156Q48.8594 13.4453 48.7656 14.1094Q48.0156 14.2969 47.4648 14.3633Q46.9141 14.4297 46.3672 14.4297Q45.3906 14.4297 44.6133 14.1953Q43.8359 13.9609 43.2813 13.3789Q42.7266 12.7969 42.4844 12.0469Q42.2422 11.2969 42.2422 10.4609Q42.2422 9.29688 42.6875 8.30078Q43.1328 7.30469 44.0273 6.73438Q44.9219 6.16406 46.2969 6.16406Q47.0078 6.16406 47.6563 6.37109Q48.3047 6.57813 48.7344 7Q49.1641 7.42188 49.3984 8.04297Q49.6328 8.66406 49.6328 9.39844Q49.6328 9.67969 49.5859 9.94531L43.625 9.94531Q43.5938 10.375 43.5938 10.6016Q43.5938 11.4219 43.9375 12.1133Q44.2813 12.8047 44.9531 13.1602Q45.625 13.5156 46.5 13.5156Q47.5078 13.5156 48.9531 13.0156ZM43.6875 9.29688L48.3438 9.29688Q48.3359 8.80469 48.2813 8.53125Q48.2266 8.25781 48.0781 7.96484Q47.9297 7.67188 47.6758 7.45703Q47.4219 7.24219 47.0664 7.12891Q46.7109 7.01563 46.2969 7.01563Q45.8516 7.01563 45.4492 7.14063Q45.0469 7.26563 44.7383 7.48438Q44.4297 7.70313 44.2148 7.99609Q44 8.28906 43.8945 8.5625Q43.7891 8.83594 43.6875 9.29688ZM57.4453 13.0156Q57.3516 13.4453 57.2578 14.1094Q56.5078 14.2969 55.957 14.3633Q55.4063 14.4297 54.8594 14.4297Q53.8828 14.4297 53.1055 14.1953Q52.3281 13.9609 51.7734 13.3789Q51.2188 12.7969 50.9766 12.0469Q50.7344 11.2969 50.7344 10.4609Q50.7344 9.29688 51.1797 8.30078Q51.625 7.30469 52.5195 6.73438Q53.4141 6.16406 54.7891 6.16406Q55.5 6.16406 56.1484 6.37109Q56.7969 6.57813 57.2266 7Q57.6563 7.42188 57.8906 8.04297Q58.125 8.66406 58.125 9.39844Q58.125 9.67969 58.0781 9.94531L52.1172 9.94531Q52.0859 10.375 52.0859 10.6016Q52.0859 11.4219 52.4297 12.1133Q52.7734 12.8047 53.4453 13.1602Q54.1172 13.5156 54.9922 13.5156Q56 13.5156 57.4453 13.0156ZM52.1797 9.29688L56.8359 9.29688Q56.8281 8.80469 56.7734 8.53125Q56.7188 8.25781 56.5703 7.96484Q56.4219 7.67188 56.168 7.45703Q55.9141 7.24219 55.5586 7.12891Q55.2031 7.01563 54.7891 7.01563Q54.3438 7.01563 53.9414 7.14063Q53.5391 7.26563 53.2305 7.48438Q52.9219 7.70313 52.707 7.99609Q52.4922 8.28906 52.3867 8.5625Q52.2813 8.83594 52.1797 9.29688ZM59.4375 14.2578Q59.7184 9.75 59.7184 7.0625L59.7106 6.34375Q60.1091 6.35156 60.3669 6.35156Q60.6639 6.35156 61.0313 6.34375L60.969 7.64063Q61.2581 7.15625 61.4807 6.91016Q61.7034 6.66406 61.9846 6.50391Q62.2657 6.34375 62.6212 6.25391Q62.9767 6.16406 63.3594 6.16406Q63.6875 6.16406 64.0078 6.24219Q64.0156 6.75781 64.0625 7.39844Q63.5782 7.26563 63.1956 7.26563Q62.7346 7.26563 62.3676 7.41797Q62.0005 7.57031 61.7076 7.87891Q61.4147 8.1875 61.2272 8.61719Q61.071 8.96094 60.989 9.50781Q60.907 10.0547 60.8601 11.5Q60.829 12.5547 60.829 13.7344L60.829 14.2578Q60.4069 14.2422 60.1489 14.2422Q59.9143 14.2422 59.4375 14.2578ZM65.4531 4.64063Q65.4766 3.90625 65.4766 3.53125Q65.9063 3.54688 66.2344 3.54688Q66.6484 3.54688 66.9844 3.53125Q66.9688 3.77344 66.9375 4.64063Q66.5156 4.63281 66.2109 4.63281Q65.9063 4.63281 65.4531 4.64063ZM65.0938 14.2578L65.2291 12.2891L65.3805 8.92969L65.4442 6.34375L66.1636 6.35156L66.8672 6.34375Q66.7795 7.5625 66.7078 8.89453Q66.636 10.2266 66.5922 11.8047Q66.5483 13.3828 66.5483 14.2578Q66.0557 14.2422 65.8445 14.2422Q65.649 14.2422 65.0938 14.2578ZM68.6094 14.2578Q68.9829 9.35938 68.9985 6.34375L69.7024 6.35156Q69.9604 6.35156 70.3828 6.34375L70.2795 7.90625Q70.4749 7.57813 70.5921 7.40234Q70.7094 7.22656 70.9047 7.03125Q71.1001 6.83594 71.3658 6.66797Q71.6315 6.5 71.991 6.38672Q72.3505 6.27344 72.7216 6.21875Q73.0928 6.16406 73.4601 6.16406Q74.1322 6.16406 74.7574 6.32813Q75.3826 6.49219 75.785 6.86328Q76.1874 7.23438 76.3242 7.69531Q76.4609 8.15625 76.4609 8.6875Q76.4609 8.78906 76.4532 9.07813Q76.4454 9.36719 76.4222 9.83594L76.2673 13.1094Q76.2518 13.5781 76.2441 14.2578Q75.8921 14.2422 75.5791 14.2422Q75.1958 14.2422 74.8594 14.2578Q74.9382 13.3125 74.9777 12.4375L75.0801 10.6172Q75.1274 9.67969 75.1274 9.20313Q75.1274 8.51563 74.8928 8.10547Q74.6582 7.69531 74.142 7.47266Q73.6257 7.25 72.9844 7.25Q72.077 7.25 71.4279 7.67969Q70.8334 8.07813 70.5049 8.8125Q70.2781 9.33594 70.1842 10.3594Q70.0651 11.5859 70.0173 14.2578Q69.5817 14.2422 69.3406 14.2422Q69.0995 14.2422 68.6094 14.2578ZM78.7969 16.5469Q79.8281 16.8594 80.5234 16.9688Q81.2188 17.0781 81.7891 17.0781Q82.4375 17.0781 82.9922 16.8984Q83.4531 16.75 83.7813 16.4766Q84.0313 16.2656 84.1953 15.9297Q84.3984 15.4844 84.4844 14.7969Q84.5541 14.2422 84.5928 12.5859Q84.4053 12.9375 84.253 13.1563Q84.1007 13.375 83.8429 13.6055Q83.5851 13.8359 83.2414 14.0156Q82.8977 14.1953 82.4446 14.3008Q81.9916 14.4063 81.5073 14.4063Q80.7965 14.4063 80.1755 14.2109Q79.5544 14.0156 79.0662 13.5625Q78.578 13.1094 78.3242 12.4063Q78.0703 11.7031 78.0703 10.9375Q78.0703 9.88281 78.4492 8.92969Q78.8281 7.97656 79.5586 7.33594Q80.2891 6.69531 81.207 6.42969Q82.125 6.16406 83.2188 6.16406Q84.4219 6.16406 86.2109 6.48438L86.1248 7.44531L85.8895 11.8281Q85.8895 11.9609 85.8503 13.4219L85.8033 15.0391Q85.7643 15.5547 85.6627 15.9453Q85.569 16.2656 85.4128 16.5547Q85.2722 16.8203 85.0613 17.0391Q84.8582 17.2656 84.5848 17.4453Q84.3114 17.625 83.999 17.7344Q83.5616 17.8906 83.0929 17.9609Q82.5618 18.0469 82.0306 18.0469Q81.2651 18.0469 80.527 17.9688Q79.7889 17.8906 78.875 17.6719L78.8516 17.2422Q78.8438 17.0859 78.7969 16.5469ZM84.802 7.32813Q83.9275 7.15625 83.17 7.15625Q82.4048 7.15625 81.7527 7.33594Q81.1007 7.51563 80.558 7.99219Q80.0154 8.46875 79.7108 9.22656Q79.4063 9.98438 79.4063 10.7969Q79.4063 11.5547 79.6835 12.1797Q79.9607 12.8047 80.5385 13.1211Q81.1163 13.4375 81.8503 13.4375Q82.4828 13.4375 82.9786 13.2148Q83.4745 12.9922 83.8572 12.5313Q84.2554 12.0547 84.4506 11.4375Q84.599 11 84.6771 10.1406Q84.7395 9.45313 84.802 7.32813Z" />
      </g>
    </g>
  </g>
</svg>